Coordinates
version=1
nRows=19
nColumns=24
inDegrees=yes

Units are S.I. units (second, meters, Newtons, ...)
Angles are in degrees.

endheader
time	torso_tilt	torso_list	torso_rotation	torso_tx	torso_ty	torso_tz	lumbar_extension	lumbar_bending	lumbar_rotation	hip_flexion_r	hip_adduction_r	hip_rotation_r	knee_angle_r	ankle_angle_r	subtalar_angle_r	mtp_angle_r	hip_flexion_l	hip_adduction_l	hip_rotation_l	knee_angle_l	ankle_angle_l	subtalar_angle_l	mtp_angle_l
     27.62000000	    -56.49073346	      0.80922958	     -1.69649723	     -0.05307345	      0.67983990	      0.00898824	     28.94168455	      0.93140238	     -1.44484697	     96.83072386	     -7.71596881	     -4.34339226	   -104.96705106	     36.00027379	      3.69166657	      0.00000000	    100.40662675	    -11.73698233	     -0.19235508	   -103.03007863	     34.57913948	      3.76365241	      0.00000000
     27.63000000	    -56.26455616	      0.76509695	     -1.74941306	     -0.05301112	      0.68278511	      0.00933368	     28.81656187	      0.93772419	     -1.43023432	     96.34704837	     -7.57905371	     -4.39217829	   -104.47316394	     35.88282866	      3.59186057	      0.00000000	     99.92437002	    -11.69360481	     -0.12294692	   -102.54611428	     34.44087045	      3.71132745	      0.00000000
     27.64000000	    -56.02726184	      0.72625465	     -1.82063751	     -0.05289052	      0.68589898	      0.00965187	     28.67465822	      0.92747298	     -1.38754803	     95.83700343	     -7.44599811	     -4.45377754	   -103.94620836	     35.77938554	      3.49396359	      0.00000000	     99.42281485	    -11.64746048	     -0.05460298	   -102.01911877	     34.32626710	      3.63892657	      0.00000000
     27.65000000	    -55.79611322	      0.69284063	     -1.85267653	     -0.05286345	      0.68914536	      0.00991674	     28.57853989	      0.91180691	     -1.38098177	     95.28264520	     -7.31970566	     -4.50582740	   -103.39592760	     35.65697108	      3.39875532	      0.00000000	     98.86310056	    -11.58599725	      0.00370353	   -101.47632031	     34.17157387	      3.58674030	      0.00000000
     27.66000000	    -55.54818909	      0.66634811	     -1.88872623	     -0.05284651	      0.69249443	      0.01014868	     28.49479434	      0.88009979	     -1.36095009	     94.68112346	     -7.19853944	     -4.56303542	   -102.83373229	     35.52716553	      3.29955735	      0.00000000	     98.26188649	    -11.51056580	      0.07723450	   -100.92484473	     34.03704455	      3.50820751	      0.00000000
     27.67000000	    -55.29142702	      0.63942612	     -1.84479250	     -0.05275426	      0.69622392	      0.01039600	     28.40348677	      0.80488042	     -1.39754195	     94.03018727	     -7.08332620	     -4.62418657	   -102.20412766	     35.38030372	      3.19943931	      0.00000000	     97.61521664	    -11.42889996	      0.13767720	   -100.30009846	     33.87662365	      3.41991262	      0.00000000
     27.68000000	    -55.03019450	      0.60716384	     -1.82844544	     -0.05267933	      0.70000840	      0.01070364	     28.30824299	      0.75478879	     -1.40019073	     93.37555279	     -6.97013918	     -4.68193525	   -101.56356786	     35.24023665	      3.07500484	      0.00000000	     96.94862964	    -11.32565898	      0.20796755	    -99.65313237	     33.71707209	      3.35858566	      0.00000000
     27.69000000	    -54.77083831	      0.58417866	     -1.84810216	     -0.05263534	      0.70370584	      0.01096801	     28.23545912	      0.69170896	     -1.38939250	     92.69115610	     -6.82203834	     -4.75627401	   -100.92464598	     35.11274634	      2.94505422	      0.00000000	     96.28013224	    -11.24746074	      0.29918763	    -99.04171541	     33.56831229	      3.27169516	      0.00000000
     27.70000000	    -54.48394680	      0.57731359	     -1.81358677	     -0.05247037	      0.70771936	      0.01124777	     28.11542461	      0.59316119	     -1.39747006	     91.99759445	     -6.70586276	     -4.83759656	   -100.23526442	     34.93587896	      2.81442091	      0.00000000	     95.58661471	    -11.14529185	      0.38112407	    -98.35478076	     33.39539255	      3.15480244	      0.00000000
     27.71000000	    -54.22663351	      0.56392425	     -1.84084095	     -0.05223784	      0.71185607	      0.01145086	     28.01922583	      0.50495930	     -1.37645854	     91.28032491	     -6.58327542	     -4.95559687	    -99.50709408	     34.77589493	      2.73021267	      0.00000000	     94.89104738	    -11.05952872	      0.49707614	    -97.66318472	     33.19895959	      3.06099082	      0.00000000
     27.72000000	    -53.92539670	      0.56700657	     -1.81904372	     -0.05204685	      0.71596948	      0.01167763	     27.89666655	      0.37328383	     -1.35199882	     90.54154349	     -6.50262166	     -5.08624679	    -98.78510912	     34.63845402	      2.64251594	      0.00000000	     94.18380273	    -10.92919439	      0.62771571	    -96.96709581	     33.02044402	      2.97050369	      0.00000000
     27.73000000	    -53.75569211	      0.53842399	     -1.98199507	     -0.05156859	      0.72041244	      0.01191230	     27.81794089	      0.35563218	     -1.20152066	     89.82948534	     -6.39935979	     -5.23804136	    -97.97257176	     34.50100875	      2.56231243	      0.00000000	     93.50483244	    -10.84213675	      0.73456308	    -96.20011703	     32.82947733	      2.86050638	      0.00000000
     27.74000000	    -53.57965578	      0.49370118	     -2.07586479	     -0.05095883	      0.72509657	      0.01220686	     27.71832629	      0.35921395	     -1.09471001	     89.11198442	     -6.34192203	     -5.36204114	    -97.12514652	     34.36895846	      2.49988824	      0.00000000	     92.78800632	    -10.73174899	      0.79721373	    -95.36598943	     32.63248108	      2.74431917	      0.00000000
     27.75000000	    -53.25829790	      0.48792313	     -2.06888816	     -0.05060915	      0.72946582	      0.01239898	     27.55480817	      0.24353487	     -1.08867342	     88.35452699	     -6.25338977	     -5.50388383	    -96.33352974	     34.19678188	      2.50861923	      0.00000000	     92.06186536	    -10.65301213	      0.91009290	    -94.61504579	     32.39132951	      2.67419680	      0.00000000
     27.76000000	    -52.98460126	      0.49420417	     -2.08660532	     -0.05021334	      0.73381356	      0.01250991	     27.44676751	      0.09321628	     -1.06506525	     87.56927569	     -6.14331668	     -5.68636042	    -95.52923085	     34.05687957	      2.47022967	      0.00000000	     91.33065502	    -10.58577735	      1.04970614	    -93.86472878	     32.20474000	      2.55704393	      0.00000000
     27.77000000	    -52.65840424	      0.49664210	     -2.08191261	     -0.04969387	      0.73830654	      0.01261738	     27.26355132	     -0.03181926	     -1.09057932	     86.80554454	     -6.04015420	     -5.86232891	    -94.69634850	     33.88181872	      2.45932569	      0.00000000	     90.59150627	    -10.54753835	      1.15311397	    -93.09012846	     32.00699192	      2.45552448	      0.00000000
     27.78000000	    -52.33530005	      0.52488453	     -2.08335691	     -0.04916274	      0.74276535	      0.01255352	     27.10652118	     -0.21210363	     -1.14649460	     86.01090758	     -5.90890685	     -6.08001809	    -93.85242700	     33.68498248	      2.49087700	      0.00000000	     89.84669972	    -10.56376276	      1.28626017	    -92.34768932	     31.81970068	      2.33898849	      0.00000000
     27.79000000	    -51.99517610	      0.53060518	     -2.05243032	     -0.04858527	      0.74723892	      0.01266594	     26.92275466	     -0.34623437	     -1.20298632	     85.22722208	     -5.82120717	     -6.28383811	    -93.00784993	     33.53968908	      2.46728037	      0.00000000	     89.08365788	    -10.55607182	      1.36125640	    -91.57228360	     31.64164086	      2.23651251	      0.00000000
     27.80000000	    -51.66996420	      0.51736721	     -2.06201866	     -0.04805656	      0.75174288	      0.01286816	     26.78104767	     -0.40923519	     -1.22785943	     84.41975974	     -5.75974159	     -6.46252792	    -92.16313214	     33.36719948	      2.52232652	      0.00000000	     88.27372913	    -10.56104735	      1.37934507	    -90.78047957	     31.45409977	      2.15941593	      0.00000000
